<svg width="54" height="54" viewBox="0 0 54 54" fill="none" xmlns="http://www.w3.org/2000/svg">
<path d="M24.5187 39.1843C27.7728 39.1837 30.9332 38.0943 33.4965 36.0897L41.5559 44.149L44.1482 41.5567L36.0889 33.4973C38.0946 30.9337 39.1846 27.7726 39.1854 24.5177C39.1854 16.4308 32.6055 9.851 24.5187 9.851C16.4319 9.851 9.85205 16.4308 9.85205 24.5177C9.85205 32.6045 16.4319 39.1843 24.5187 39.1843ZM24.5187 13.5177C30.5852 13.5177 35.5187 18.4512 35.5187 24.5177C35.5187 30.5842 30.5852 35.5177 24.5187 35.5177C18.4522 35.5177 13.5187 30.5842 13.5187 24.5177C13.5187 18.4512 18.4522 13.5177 24.5187 13.5177Z" fill="#BABABA"/>
</svg>
