<svg width="54" height="54" viewBox="0 0 54 54" fill="none" xmlns="http://www.w3.org/2000/svg">
<path d="M41.6665 10.5L12.3332 10.5C10.311 10.5 8.6665 12.1445 8.6665 14.1667L8.6665 34.3333C8.6665 36.3555 10.311 38 12.3332 38H19.6665L16.3665 42.4L19.2998 44.6L24.2498 38H29.7498L34.6998 44.6L37.6332 42.4L34.3332 38H41.6665C43.6887 38 45.3332 36.3555 45.3332 34.3333V14.1667C45.3332 12.1445 43.6887 10.5 41.6665 10.5ZM12.3332 34.3333L12.3332 14.1667L41.6665 14.1667L41.6683 34.3333H12.3332Z" fill="#BABABA"/>
<path d="M16 27H23.3333V30.6667H16V27Z" fill="#BABABA"/>
</svg>
